<svg xmlns="http://www.w3.org/2000/svg" viewBox="0 0 64 64"><defs><style>.cls-1{fill:#6C63FF;}</style></defs><title>Masker N95</title><g id="Masker_N95" data-name="Masker N95"><path class="cls-1" d="M57,11c-3.84,0-7.76,6.24-10,10.51a25.54,25.54,0,0,0-2,3.56,1,1,0,0,1-1.84-.79c.21-.49,1-2.24,2.12-4.36-2.75-2.41-8.87-7-12.32-7.77-3.47-1-11.64,5.38-14.32,7.77,1.14,2.12,1.91,3.87,2.12,4.36a1,1,0,0,1-1.84.79,25.54,25.54,0,0,0-2-3.56C14.76,17.24,10.84,11,7,11c-4.71,0-7,6.54-7,20,0,9.23,4.11,19,8,19,2.33,0,6.09-3.84,8.56-6.68,8.26,12.35,23.71,10.86,30.9,0C49.93,46.18,53.68,50,56,50c3.89,0,8-9.77,8-19C64,17.54,61.71,11,57,11ZM26.46,19.16a9.23,9.23,0,0,0,1.71-1.67c5-5.78,7.09.2,9.37,1.67,1.73,1.11,3.61.45,3.45,1.95a1,1,0,0,1-1.1.88,8.76,8.76,0,0,1-3.43-1.15C34.52,19.59,33.4,17,32,17s-2.55,2.59-4.46,3.82A8.76,8.76,0,0,1,24.11,22a1,1,0,0,1-1.1-.88C22.85,19.61,24.74,20.27,26.46,19.16ZM39.15,30.49a50.37,50.37,0,0,1-14.3,0A1,1,0,0,1,24,29.35c.31-2.12,3.82.78,14.84-.84A1,1,0,0,1,39.15,30.49ZM17.29,39.11c-.33.42-1.87,2.38-1.84,2.43C12.54,44.94,9.28,48,8,48c-2,0-6-7.87-6-17C2,11.86,6.91,6.13,15.54,23.05c-2,2.23-3.66,4.8-3.54,7.6a26.24,26.24,0,0,0,2.4,8.86c.45-.54.89-1.08,1.31-1.62A1,1,0,0,1,17.29,39.11Zm21.86,3.38a50.37,50.37,0,0,1-14.3,0,1,1,0,0,1,.3-2c11.27,1.66,14.52-1.31,14.84.84A1,1,0,0,1,39.15,42.49ZM17.64,34.64a1,1,0,0,1,.74-1.86c7.51,3,19.71,3,27.24,0a1,1,0,0,1,.74,1.86C38.44,37.76,25.71,37.82,17.64,34.64ZM56,48c-1.28,0-4.54-3.06-7.45-6.46a17.62,17.62,0,0,0-1.84-2.43,1,1,0,0,1,1.58-1.22c.42.54.86,1.08,1.31,1.62,1.38-3,3.37-8.91,1.83-12a16.34,16.34,0,0,0-3-4.45C57.11,6.07,62,11.94,62,31,62,40.13,58,48,56,48Z"/></g></svg>